# xmcd
#
# Track frame offsets: 
#        150
#        18605
#        31610
#        53947
#
# Disc length: 1308 seconds
#
# Revision: 2
# Processed by: cddbd v1.5.2PL0 Copyright (c) Steve Scherf et al.
# Submitted via: ExactAudioCopy v0.99pb4
#
DISCID=28051a04
DTITLE=Kaiser Chiefs - Modern Way [CD, Maxi-Single, Enhanced)
DYEAR=2005
DGENRE=Rock - Brit Pop
TTITLE0=Modern Way
TTITLE1=Moon
TTITLE2=It Ain't Easy (Demo)
TTITLE3=Modern Way (Video)
EXTD=
EXTT0=
EXTT1=
EXTT2=
EXTT3=
PLAYORDER=
